<?xml version="1.0" encoding="UTF-8" standalone="no"?>
<!-- Created with Inkscape (http://www.inkscape.org/) -->

<svg
   xmlns:dc="http://purl.org/dc/elements/1.1/"
   xmlns:cc="http://creativecommons.org/ns#"
   xmlns:rdf="http://www.w3.org/1999/02/22-rdf-syntax-ns#"
   xmlns:svg="http://www.w3.org/2000/svg"
   xmlns="http://www.w3.org/2000/svg"
   xmlns:xlink="http://www.w3.org/1999/xlink"
   xmlns:sodipodi="http://sodipodi.sourceforge.net/DTD/sodipodi-0.dtd"
   xmlns:inkscape="http://www.inkscape.org/namespaces/inkscape"
   width="25.4cm"
   height="14.3cm"
   viewBox="0 0 254 143.00001"
   version="1.1"
   id="svg8"
   inkscape:version="0.92.1 r15371"
   sodipodi:docname="background_heine.svg">
  <defs
     id="defs2">
    <clipPath
       id="clipPath4535"
       clipPathUnits="userSpaceOnUse">
      <path
         inkscape:connector-curvature="0"
         id="path4533"
         d="M 0,393.862 H 742.457 V 0 H 0 Z" />
    </clipPath>
    <clipPath
       id="clipPath4584"
       clipPathUnits="userSpaceOnUse">
      <path
         inkscape:connector-curvature="0"
         id="path4582"
         d="M 245.02,147.66 H 5707.73 V 7079.28 H 245.02 Z" />
    </clipPath>
    <clipPath
       id="clipPath4627"
       clipPathUnits="userSpaceOnUse">
      <path
         inkscape:connector-curvature="0"
         id="path4625"
         d="M 245.02,147.66 H 5707.73 V 7079.28 H 245.02 Z" />
    </clipPath>
    <clipPath
       clipPathUnits="userSpaceOnUse"
       id="clipPath4648">
      <use
         x="0"
         y="0"
         xlink:href="#g4644"
         id="use4650"
         width="100%"
         height="100%" />
    </clipPath>
  </defs>
  <sodipodi:namedview
     id="base"
     pagecolor="#ffffff"
     bordercolor="#666666"
     borderopacity="1.0"
     inkscape:pageopacity="0.0"
     inkscape:pageshadow="2"
     inkscape:zoom="1"
     inkscape:cx="403.7924"
     inkscape:cy="400"
     inkscape:document-units="mm"
     inkscape:current-layer="layer1"
     showgrid="true"
     units="cm"
     scale-x="1"
     inkscape:pagecheckerboard="false"
     inkscape:showpageshadow="false"
     inkscape:window-width="2048"
     inkscape:window-height="1093"
     inkscape:window-x="0"
     inkscape:window-y="0"
     inkscape:window-maximized="1">
    <inkscape:grid
       type="xygrid"
       id="grid18"
       units="mm"
       spacingx="10"
       spacingy="10"
       dotted="false" />
  </sodipodi:namedview>
  <metadata
     id="metadata5">
    <rdf:RDF>
      <cc:Work
         rdf:about="">
        <dc:format>image/svg+xml</dc:format>
        <dc:type
           rdf:resource="http://purl.org/dc/dcmitype/StillImage" />
        <dc:title></dc:title>
      </cc:Work>
    </rdf:RDF>
  </metadata>
  <g
     inkscape:label="Ebene 1"
     inkscape:groupmode="layer"
     id="layer1"
     transform="translate(0,-153.99999)">
    <g
       transform="matrix(0.18754635,0,0,-0.18754635,-76.706888,275.68105)"
       inkscape:label="ink_ext_XXXXXX"
       id="g4617">
      <g
         transform="scale(0.1)"
         id="g4619">
        <g
           id="g4621"
           transform="translate(1504.9261,-668.70891)">
          <g
             id="g4682">
            <g
               transform="translate(562.98152,-49.913901)"
               clip-path="url(#clipPath4648)"
               id="g4646">
              <g
                 id="g4644"
                 inkscape:label="Clip">
                <g
                   clip-path="url(#clipPath4627)"
                   id="g4623"
                   transform="translate(419.15843,-1438.5661)">
                  <path
                     inkscape:connector-curvature="0"
                     id="path4629"
                     style="fill:#a9c4d0;fill-opacity:1;fill-rule:nonzero;stroke:none"
                     d="m 5274.78,2966.9 c 57.84,38.1 90.33,81.6 102.66,135.72 -28.39,-13.79 -84.69,-18.16 -133.17,-27.43 -142.41,-27.24 -160.84,-114.33 -310.75,-60.59 -9.11,-11.03 -9.19,-56.56 -8.04,-70.84 187.18,-9.75 117.28,66.84 349.3,23.14 m -65.62,1389.36 c -5.36,27.75 -5.66,135.68 41.67,206.24 -295.27,267.32 -699.71,67.67 -886.04,-87.78 -6.31,-5.28 0.69,-15.32 7.77,-11.16 154.06,90.67 357.13,76.59 474.3,20.42 -143.94,-18.76 -362.21,-249.79 -508.24,-292.48 74.16,-27.26 291.66,15.56 372.81,101.18 -13.41,-91.12 35.21,-155.51 85.44,-120.26 103.59,-129.9 160.98,-117.97 152.32,-39.66 -16.82,95.28 77.93,260.08 167.9,310.86 21.57,-27.07 64.5,-78.04 92.07,-87.36 M 5038.6,2685.14 c 67.96,-15.54 119.5,-75.23 146.33,-138.97 2.92,-6.92 13.16,-4.62 12.99,2.9 -2.11,98.28 -10.42,109.52 -36.94,146.02 12.5,50.45 55.09,111.76 55.09,111.76 -105.11,-0.9 -161.47,-40.01 -177.47,-121.71 M 3900.56,1933.5 c 0,0 -907.1,320.46 -1837.96,1244.92 -119.14,118.35 301.87,194.04 423.01,403.23 8.8,-7.33 17.28,-14.9 26.63,-21.74 177.66,-128.99 383.49,-84.41 486.2,73.42 -83.49,-19.33 -356.64,-78.64 -554.62,298.89 187.4,-100.55 424.07,-116.14 633.07,-65.14 106.02,26.8 152.97,54.6 227.13,152.94 4.53,6.02 -2.62,14.08 -8.91,9.93 -77.26,-51.11 -256.94,-133.83 -487.73,-113.57 9.54,1.81 109.21,21.72 139.4,41.21 1.56,1.01 0.99,3.37 -0.87,3.23 -112.88,-7.74 -328.2,21.69 -471.93,120.97 0.82,-0.11 1.59,-0.16 2.44,-0.27 0,0 604.21,-190.48 857.35,125.81 6.92,8.65 23.57,47.5 13.29,63.83 40.2,19.85 79.71,43.04 110.75,77.14 27.26,29.94 52.15,80.78 46.97,117.26 0,0 -50.83,-27.19 -56.98,-30.19 -165.25,-80.56 -355.46,-125.38 -534.68,-113.76 -18.3,2.41 -36.5,5.39 -54.77,9.03 -18.4,4.64 -39.46,9.57 -63,14.79 0,0 126.36,9.27 176.56,74.27 1.01,1.28 0.06,3.31 -1.58,3.23 -35.14,-1.4 -283.88,-9.63 -338.05,38.63 355.38,-9.87 633.86,155.3 716.12,217.18 2.63,1.97 -0.08,5.99 -2.98,4.45 -137.3,-73.28 -290.93,-93.68 -569.74,-71.8 305.26,48.1 383.55,72.19 453.64,120.26 3.55,2.44 1,8.04 -3.13,6.84 -112.14,-32.41 -272.3,-68.75 -556.83,14.38 409.17,-77.66 737.2,89.01 836.76,159.81 83.47,59.39 147.18,105.52 148.55,216.05 -2.52,36.18 -39.68,85.89 -40.23,58.44 -1.59,-84.23 -62.61,-131.15 -135.6,-190.38 -11.18,-7.58 -22.32,-14.74 -33.23,-21.3 103.89,105.47 167.27,246.08 80.56,367.76 0,0 -13.81,15.67 7.96,11.08 137.05,-48.46 164.51,-177.64 174.92,-187.78 7.66,-7.41 7.8,58.98 7.5,78.07 0,0 3.01,84.6 -94.83,202.49 131.31,-74.95 209.43,-180.75 226.75,-290.1 0,0 175.6,326.72 -824.85,637.88 0,0 -12.33,15.64 8.92,10.28 13.31,-3.34 153.51,-36.2 222.59,-61.64 566.89,-161.03 988.55,41.27 1147.07,205.44 5.66,5.83 14.5,-1.86 9.66,-8.36 -103.89,-139.52 -354.05,-324.78 -667.52,-336.16 -5.45,-0.19 -6.14,-8.06 -0.81,-9.21 807.05,-175.75 604.28,303.89 1137.95,-169.38 187.61,-135.41 501.16,55.73 552.92,228.45 0,0 34.26,86.3 -11.1,246.02 -9.98,-29.48 -62.98,-174.3 -293.99,-177.34 204.13,113.6 239.46,193.28 252.42,277.86 28.86,188.3 -92.37,403.75 -92.37,403.75 -7.6,-120.95 -81.87,-190.54 -124.42,-186.27 75.53,123.27 83.46,201.37 50.01,297.68 -60.05,172.52 -151.98,230.68 -239.84,290.84 19.85,-91.28 -5.85,-167.16 -98.99,-152.53 159.45,81.35 23.3,218.73 -80.83,270.91 -7.79,-152.97 -114.03,-127.16 -156.5,-102.66 56.72,3.07 100.6,67.43 44.25,150.79 -102.69,-73.54 -246.14,-19.2 -255.84,-11.76 14.54,25.67 59.8,39.81 120.53,46.07 -82.06,22.89 -150.32,39.11 -181.4,39.9 -194,4.97 -345.51,-78.12 -345.51,-78.12 0,0 -130.61,47.16 -250.21,34.78 -116.58,-12.11 -179.77,-32.87 -227.65,-63.55 4.49,54.71 87.37,78.2 136.51,85.02 -695.31,160.29 -1039.89,-90.11 -1039.89,-90.11 0,0 -45.03,25.11 -210.25,-29.07 -122.97,-40.25 -320.08,-162.48 -430.14,-244.57 -17.96,-17.15 -70.96,-79.57 -91.08,-100.77 -23.77,6.92 -88.31,-46.81 -120.76,-81.02 -100.55,-92.89 -153.68,-331.26 -153.68,-331.26 -23.47,104.51 53.13,238.37 53.13,238.37 0,0 -143.68,-110.95 -186.09,-354.04 l -81.65,-92.24 c 0,0 -148.45,-215.18 -193.41,-328.9 -9.52,-23.96 -19.25,-58.39 -28.69,-97.68 42.47,33.33 78.05,50.94 104.49,56.46 -7.16,-9.21 -102.57,-118.89 -115.12,-191.41 39.56,32.21 64.12,47.93 106.51,38.39 -39.63,-17.8 -124.18,-91.41 -124.48,-155.24 -0.16,-43.5 -14.3,-102.59 -35.11,-160.32 43.21,21.11 95.63,13.18 113.51,-12.06 -44.74,-9.19 -102.16,-32.62 -124.56,-63.47 29.46,2.05 51.03,-5.25 73.94,-22.58 -64.01,-4.77 -122.97,-51.23 -144.1,-71.24 -35.53,-41.02 -45.07,-82.91 -58.852,-138.51 -26.364,-106.23 -23.02,-316.16 -12.579,-391.69 20.341,-147.03 43.671,-204.29 107.741,-341.18 -28.57,3.28 -86.85,32.1 -100.659,59.2 -0.656,1.29 -2.597,0.76 -2.515,-0.68 2.734,-56.88 70.374,-430.69 315.354,-492.82 h 10 C 628.945,3001.89 366.461,2919.6 273.539,2861.64 555.938,1866.57 995.867,1201.56 2069.82,532.531 3090.98,4.35156 4569.14,173.398 4569.14,173.398 c 0,0 -360.46,1293.542 -668.58,1760.102 m -19.23,266.97 c 236.83,-22.28 918.9,-88.65 1171.36,-31.97 7.57,1.7 6.78,12.59 -0.93,13.32 -568.51,55.7 -1425.59,381.11 -1643.83,499.24 -104.98,56.78 -236.97,221.91 -401.18,582.27 -3.25,7.1 -14.16,4.34 -13.23,-3.45 38.34,-316.63 374.21,-839.8 546.02,-971.68 0,0 80.28,-63.12 341.79,-87.73 m 1826.41,1203.44 c -80.06,55.26 -198.66,77.98 -271.72,70.79 -150.71,-14.79 -273.21,-41.95 -321.83,-36.5 23.13,-28.96 105.68,-37.33 157.12,-38.09 59.97,-0.93 123.16,-3.72 176.57,-12.45 77.33,-12.52 242.47,-43.58 259.86,16.25" />
                </g>
              </g>
            </g>
            <rect
               transform="scale(1,-1)"
               y="155.83842"
               x="422.51062"
               height="1328.6716"
               width="5332.0156"
               id="rect4652"
               style="opacity:1;fill:#ffffff;fill-opacity:1;stroke-width:22.26983452" />
            <rect
               transform="scale(1,-1)"
               y="-5980.3115"
               x="1488.9136"
               height="1328.6716"
               width="5332.0156"
               id="rect4652-6"
               style="opacity:1;fill:#ffffff;fill-opacity:1;stroke-width:22.26983452" />
          </g>
        </g>
      </g>
    </g>
    <rect
       style="fill:#006ab3;fill-opacity:1;stroke-width:0.22800335"
       id="rect22-3"
       width="240"
       height="5.5999999"
       x="14.233332"
       y="-297"
       transform="scale(1,-1)" />
    <rect
       style="fill:#006ab3;stroke-width:0.05367369;fill-opacity:1"
       id="rect22"
       width="13.3"
       height="5.5999999"
       x="-1.7763568e-15"
       y="-297"
       transform="scale(1,-1)" />
    <g
       transform="matrix(0.07538739,0,0,-0.07538739,7.5242013,187.49306)"
       inkscape:label="Logo_HHU_Bildmarke_rgb_+Safezone"
       id="g4527">
      <g
         id="g4529">
        <g
           clip-path="url(#clipPath4535)"
           id="g4531">
          <g
             transform="translate(598.1934,84.4713)"
             id="g4537">
            <path
               inkscape:connector-curvature="0"
               id="path4539"
               style="fill:#006ab3;fill-opacity:1;fill-rule:nonzero;stroke:none"
               d="m 0,0 h 33.849 c 14.856,0 26.898,12.011 26.898,26.828 0,14.818 -12.042,26.828 -26.898,26.828 L 0,53.658 Z" />
          </g>
          <g
             transform="translate(575.918,253.7589)"
             id="g4541">
            <path
               inkscape:connector-curvature="0"
               id="path4543"
               style="fill:#006ab3;fill-opacity:1;fill-rule:nonzero;stroke:none"
               d="m 0,0 v -73.534 c 0,-43.832 -32.838,-73.534 -73.346,-73.534 -40.507,0 -73.343,29.702 -73.343,73.534 V 0 h 37.167 c 0,-13.366 0.001,-67.605 0.001,-70.338 0,-22.723 16.198,-38.262 36.176,-38.262 19.981,0 36.178,15.539 36.178,38.262 V 0 Z" />
          </g>
          <g
             transform="translate(129.7007,110.482)"
             id="g4545">
            <path
               inkscape:connector-curvature="0"
               id="path4547"
               style="fill:#006ab3;fill-opacity:1;fill-rule:nonzero;stroke:none"
               d="M 0,0 H -37.168 V 190.28 H 0 v -52.14 c 10.683,5.742 23.009,8.927 36.177,8.927 40.507,0 73.345,-29.701 73.345,-73.533 V 0 H 72.354 V 70.338 C 72.354,93.061 56.157,108.6 36.177,108.6 16.198,108.6 0.001,93.061 0.001,70.338 Z" />
          </g>
          <g
             transform="translate(298.6694,110.482)"
             id="g4549">
            <path
               inkscape:connector-curvature="0"
               id="path4551"
               style="fill:#006ab3;fill-opacity:1;fill-rule:nonzero;stroke:none"
               d="m 0,0 h -37.17 v 190.28 h 37.168 v -52.14 c 10.682,5.742 23.009,8.927 36.177,8.927 40.507,0 73.345,-29.701 73.345,-73.533 V 0 H 72.352 v 70.338 c 0,22.723 -16.197,38.262 -36.177,38.262 -19.98,0 -36.176,-15.539 -36.176,-38.262 z" />
          </g>
        </g>
      </g>
    </g>
  </g>
</svg>
