<?xml version="1.0" encoding="UTF-8" standalone="no"?>
<!-- Created with Inkscape (http://www.inkscape.org/) -->

<svg
   xmlns:dc="http://purl.org/dc/elements/1.1/"
   xmlns:cc="http://creativecommons.org/ns#"
   xmlns:rdf="http://www.w3.org/1999/02/22-rdf-syntax-ns#"
   xmlns:svg="http://www.w3.org/2000/svg"
   xmlns="http://www.w3.org/2000/svg"
   xmlns:sodipodi="http://sodipodi.sourceforge.net/DTD/sodipodi-0.dtd"
   xmlns:inkscape="http://www.inkscape.org/namespaces/inkscape"
   width="25.4cm"
   height="14.3cm"
   viewBox="0 0 254 143.00001"
   version="1.1"
   id="svg8"
   inkscape:version="0.92.1 r15371"
   sodipodi:docname="background_empty.svg">
  <defs
     id="defs2">
    <clipPath
       id="clipPath4535"
       clipPathUnits="userSpaceOnUse">
      <path
         inkscape:connector-curvature="0"
         id="path4533"
         d="M 0,393.862 H 742.457 V 0 H 0 Z" />
    </clipPath>
    <clipPath
       id="clipPath4584"
       clipPathUnits="userSpaceOnUse">
      <path
         inkscape:connector-curvature="0"
         id="path4582"
         d="M 245.02,147.66 H 5707.73 V 7079.28 H 245.02 Z" />
    </clipPath>
    <clipPath
       id="clipPath4627"
       clipPathUnits="userSpaceOnUse">
      <path
         inkscape:connector-curvature="0"
         id="path4625"
         d="M 245.02,147.66 H 5707.73 V 7079.28 H 245.02 Z" />
    </clipPath>
    <clipPath
       clipPathUnits="userSpaceOnUse"
       id="clipPath4648">
      <g
         inkscape:label="Clip"
         id="use4650">
        <g
           transform="translate(419.15843,-1438.5661)"
           id="g4731"
           clip-path="url(#clipPath4627)">
          <path
             d="m 5274.78,2966.9 c 57.84,38.1 90.33,81.6 102.66,135.72 -28.39,-13.79 -84.69,-18.16 -133.17,-27.43 -142.41,-27.24 -160.84,-114.33 -310.75,-60.59 -9.11,-11.03 -9.19,-56.56 -8.04,-70.84 187.18,-9.75 117.28,66.84 349.3,23.14 m -65.62,1389.36 c -5.36,27.75 -5.66,135.68 41.67,206.24 -295.27,267.32 -699.71,67.67 -886.04,-87.78 -6.31,-5.28 0.69,-15.32 7.77,-11.16 154.06,90.67 357.13,76.59 474.3,20.42 -143.94,-18.76 -362.21,-249.79 -508.24,-292.48 74.16,-27.26 291.66,15.56 372.81,101.18 -13.41,-91.12 35.21,-155.51 85.44,-120.26 103.59,-129.9 160.98,-117.97 152.32,-39.66 -16.82,95.28 77.93,260.08 167.9,310.86 21.57,-27.07 64.5,-78.04 92.07,-87.36 M 5038.6,2685.14 c 67.96,-15.54 119.5,-75.23 146.33,-138.97 2.92,-6.92 13.16,-4.62 12.99,2.9 -2.11,98.28 -10.42,109.52 -36.94,146.02 12.5,50.45 55.09,111.76 55.09,111.76 -105.11,-0.9 -161.47,-40.01 -177.47,-121.71 M 3900.56,1933.5 c 0,0 -907.1,320.46 -1837.96,1244.92 -119.14,118.35 301.87,194.04 423.01,403.23 8.8,-7.33 17.28,-14.9 26.63,-21.74 177.66,-128.99 383.49,-84.41 486.2,73.42 -83.49,-19.33 -356.64,-78.64 -554.62,298.89 187.4,-100.55 424.07,-116.14 633.07,-65.14 106.02,26.8 152.97,54.6 227.13,152.94 4.53,6.02 -2.62,14.08 -8.91,9.93 -77.26,-51.11 -256.94,-133.83 -487.73,-113.57 9.54,1.81 109.21,21.72 139.4,41.21 1.56,1.01 0.99,3.37 -0.87,3.23 -112.88,-7.74 -328.2,21.69 -471.93,120.97 0.82,-0.11 1.59,-0.16 2.44,-0.27 0,0 604.21,-190.48 857.35,125.81 6.92,8.65 23.57,47.5 13.29,63.83 40.2,19.85 79.71,43.04 110.75,77.14 27.26,29.94 52.15,80.78 46.97,117.26 0,0 -50.83,-27.19 -56.98,-30.19 -165.25,-80.56 -355.46,-125.38 -534.68,-113.76 -18.3,2.41 -36.5,5.39 -54.77,9.03 -18.4,4.64 -39.46,9.57 -63,14.79 0,0 126.36,9.27 176.56,74.27 1.01,1.28 0.06,3.31 -1.58,3.23 -35.14,-1.4 -283.88,-9.63 -338.05,38.63 355.38,-9.87 633.86,155.3 716.12,217.18 2.63,1.97 -0.08,5.99 -2.98,4.45 -137.3,-73.28 -290.93,-93.68 -569.74,-71.8 305.26,48.1 383.55,72.19 453.64,120.26 3.55,2.44 1,8.04 -3.13,6.84 -112.14,-32.41 -272.3,-68.75 -556.83,14.38 409.17,-77.66 737.2,89.01 836.76,159.81 83.47,59.39 147.18,105.52 148.55,216.05 -2.52,36.18 -39.68,85.89 -40.23,58.44 -1.59,-84.23 -62.61,-131.15 -135.6,-190.38 -11.18,-7.58 -22.32,-14.74 -33.23,-21.3 103.89,105.47 167.27,246.08 80.56,367.76 0,0 -13.81,15.67 7.96,11.08 137.05,-48.46 164.51,-177.64 174.92,-187.78 7.66,-7.41 7.8,58.98 7.5,78.07 0,0 3.01,84.6 -94.83,202.49 131.31,-74.95 209.43,-180.75 226.75,-290.1 0,0 175.6,326.72 -824.85,637.88 0,0 -12.33,15.64 8.92,10.28 13.31,-3.34 153.51,-36.2 222.59,-61.64 566.89,-161.03 988.55,41.27 1147.07,205.44 5.66,5.83 14.5,-1.86 9.66,-8.36 -103.89,-139.52 -354.05,-324.78 -667.52,-336.16 -5.45,-0.19 -6.14,-8.06 -0.81,-9.21 807.05,-175.75 604.28,303.89 1137.95,-169.38 187.61,-135.41 501.16,55.73 552.92,228.45 0,0 34.26,86.3 -11.1,246.02 -9.98,-29.48 -62.98,-174.3 -293.99,-177.34 204.13,113.6 239.46,193.28 252.42,277.86 28.86,188.3 -92.37,403.75 -92.37,403.75 -7.6,-120.95 -81.87,-190.54 -124.42,-186.27 75.53,123.27 83.46,201.37 50.01,297.68 -60.05,172.52 -151.98,230.68 -239.84,290.84 19.85,-91.28 -5.85,-167.16 -98.99,-152.53 159.45,81.35 23.3,218.73 -80.83,270.91 -7.79,-152.97 -114.03,-127.16 -156.5,-102.66 56.72,3.07 100.6,67.43 44.25,150.79 -102.69,-73.54 -246.14,-19.2 -255.84,-11.76 14.54,25.67 59.8,39.81 120.53,46.07 -82.06,22.89 -150.32,39.11 -181.4,39.9 -194,4.97 -345.51,-78.12 -345.51,-78.12 0,0 -130.61,47.16 -250.21,34.78 -116.58,-12.11 -179.77,-32.87 -227.65,-63.55 4.49,54.71 87.37,78.2 136.51,85.02 -695.31,160.29 -1039.89,-90.11 -1039.89,-90.11 0,0 -45.03,25.11 -210.25,-29.07 -122.97,-40.25 -320.08,-162.48 -430.14,-244.57 -17.96,-17.15 -70.96,-79.57 -91.08,-100.77 -23.77,6.92 -88.31,-46.81 -120.76,-81.02 -100.55,-92.89 -153.68,-331.26 -153.68,-331.26 -23.47,104.51 53.13,238.37 53.13,238.37 0,0 -143.68,-110.95 -186.09,-354.04 l -81.65,-92.24 c 0,0 -148.45,-215.18 -193.41,-328.9 -9.52,-23.96 -19.25,-58.39 -28.69,-97.68 42.47,33.33 78.05,50.94 104.49,56.46 -7.16,-9.21 -102.57,-118.89 -115.12,-191.41 39.56,32.21 64.12,47.93 106.51,38.39 -39.63,-17.8 -124.18,-91.41 -124.48,-155.24 -0.16,-43.5 -14.3,-102.59 -35.11,-160.32 43.21,21.11 95.63,13.18 113.51,-12.06 -44.74,-9.19 -102.16,-32.62 -124.56,-63.47 29.46,2.05 51.03,-5.25 73.94,-22.58 -64.01,-4.77 -122.97,-51.23 -144.1,-71.24 -35.53,-41.02 -45.07,-82.91 -58.852,-138.51 -26.364,-106.23 -23.02,-316.16 -12.579,-391.69 20.341,-147.03 43.671,-204.29 107.741,-341.18 -28.57,3.28 -86.85,32.1 -100.659,59.2 -0.656,1.29 -2.597,0.76 -2.515,-0.68 2.734,-56.88 70.374,-430.69 315.354,-492.82 h 10 C 628.945,3001.89 366.461,2919.6 273.539,2861.64 555.938,1866.57 995.867,1201.56 2069.82,532.531 3090.98,4.35156 4569.14,173.398 4569.14,173.398 c 0,0 -360.46,1293.542 -668.58,1760.102 m -19.23,266.97 c 236.83,-22.28 918.9,-88.65 1171.36,-31.97 7.57,1.7 6.78,12.59 -0.93,13.32 -568.51,55.7 -1425.59,381.11 -1643.83,499.24 -104.98,56.78 -236.97,221.91 -401.18,582.27 -3.25,7.1 -14.16,4.34 -13.23,-3.45 38.34,-316.63 374.21,-839.8 546.02,-971.68 0,0 80.28,-63.12 341.79,-87.73 m 1826.41,1203.44 c -80.06,55.26 -198.66,77.98 -271.72,70.79 -150.71,-14.79 -273.21,-41.95 -321.83,-36.5 23.13,-28.96 105.68,-37.33 157.12,-38.09 59.97,-0.93 123.16,-3.72 176.57,-12.45 77.33,-12.52 242.47,-43.58 259.86,16.25"
             style="fill:#a9c4d0;fill-opacity:1;fill-rule:nonzero;stroke:none"
             id="path4729"
             inkscape:connector-curvature="0" />
        </g>
      </g>
    </clipPath>
    <clipPath
       id="clipPath4759"
       clipPathUnits="userSpaceOnUse">
      <path
         inkscape:connector-curvature="0"
         id="path4757"
         d="M 0,564.945 H 824.776 V 0 H 0 Z" />
    </clipPath>
  </defs>
  <sodipodi:namedview
     id="base"
     pagecolor="#ffffff"
     bordercolor="#666666"
     borderopacity="1.0"
     inkscape:pageopacity="0.0"
     inkscape:pageshadow="2"
     inkscape:zoom="1"
     inkscape:cx="236.54583"
     inkscape:cy="400"
     inkscape:document-units="mm"
     inkscape:current-layer="layer1"
     showgrid="true"
     units="cm"
     scale-x="1"
     inkscape:pagecheckerboard="false"
     inkscape:showpageshadow="false"
     inkscape:window-width="2048"
     inkscape:window-height="1093"
     inkscape:window-x="0"
     inkscape:window-y="0"
     inkscape:window-maximized="1">
    <inkscape:grid
       type="xygrid"
       id="grid18"
       units="mm"
       spacingx="10"
       spacingy="10"
       dotted="false" />
  </sodipodi:namedview>
  <metadata
     id="metadata5">
    <rdf:RDF>
      <cc:Work
         rdf:about="">
        <dc:format>image/svg+xml</dc:format>
        <dc:type
           rdf:resource="http://purl.org/dc/dcmitype/StillImage" />
        <dc:title></dc:title>
      </cc:Work>
    </rdf:RDF>
  </metadata>
  <g
     inkscape:label="Ebene 1"
     inkscape:groupmode="layer"
     id="layer1"
     transform="translate(0,-153.99999)">
    <rect
       style="fill:#006ab3;fill-opacity:1;stroke-width:0.22800335"
       id="rect22-3"
       width="240"
       height="5.5999999"
       x="14.233332"
       y="-297"
       transform="scale(1,-1)" />
    <rect
       style="fill:#006ab3;stroke-width:0.05367369;fill-opacity:1"
       id="rect22"
       width="13.3"
       height="5.5999999"
       x="-1.7763568e-15"
       y="-297"
       transform="scale(1,-1)" />
    <g
       transform="matrix(0.05040122,0,0,-0.05040122,203.41959,186.87603)"
       inkscape:label="Logo_HHU_+Name_vertikal_rgb_+Safezone"
       id="g4751">
      <g
         id="g4753">
        <g
           clip-path="url(#clipPath4759)"
           id="g4755">
          <g
             transform="translate(618.9687,404.9016)"
             id="g4761">
            <path
               inkscape:connector-curvature="0"
               id="path4763"
               style="fill:#006ab3;fill-opacity:1;fill-rule:nonzero;stroke:none"
               d="m 0,0 v -74.292 c 0,-44.284 -33.176,-74.291 -74.1,-74.291 -40.924,0 -74.101,30.007 -74.101,74.291 V 0 h 37.55 c 0,-13.503 0.003,-68.3 0.003,-71.061 0,-22.958 16.364,-38.658 36.548,-38.658 20.186,0 36.55,15.7 36.55,38.658 V 0 Z" />
          </g>
          <g
             transform="translate(168.1533,260.1506)"
             id="g4765">
            <path
               inkscape:connector-curvature="0"
               id="path4767"
               style="fill:#006ab3;fill-opacity:1;fill-rule:nonzero;stroke:none"
               d="m 0,0 h -37.553 v 192.239 h 37.551 v -52.677 c 10.792,5.802 23.247,9.019 36.551,9.019 40.924,0 74.1,-30.008 74.1,-74.292 V 0 h -37.55 v 71.061 c 0,22.956 -16.365,38.655 -36.55,38.655 C 16.364,109.716 0,94.017 0,71.061 Z" />
          </g>
          <g
             transform="translate(338.8618,260.1506)"
             id="g4769">
            <path
               inkscape:connector-curvature="0"
               id="path4771"
               style="fill:#006ab3;fill-opacity:1;fill-rule:nonzero;stroke:none"
               d="m 0,0 h -37.553 v 192.239 h 37.551 v -52.677 c 10.792,5.802 23.247,9.019 36.551,9.019 40.923,0 74.1,-30.008 74.1,-74.292 V 0 h -37.55 v 71.061 c 0,22.956 -16.365,38.655 -36.55,38.655 C 16.364,109.716 0,94.017 0,71.061 Z" />
          </g>
          <g
             transform="translate(193.8252,218.3459)"
             id="g4773">
            <path
               inkscape:connector-curvature="0"
               id="path4775"
               style="fill:#000000;fill-opacity:1;fill-rule:nonzero;stroke:none"
               d="m 0,0 c -0.521,0.536 -1.131,0.806 -1.829,0.806 -0.73,0 -1.356,-0.27 -1.878,-0.806 -0.524,-0.539 -0.785,-1.153 -0.785,-1.846 0,-0.692 0.261,-1.3 0.785,-1.819 0.522,-0.52 1.148,-0.778 1.878,-0.778 0.698,0 1.308,0.258 1.829,0.778 0.522,0.519 0.783,1.127 0.783,1.819 C 0.783,-1.153 0.522,-0.539 0,0" />
          </g>
          <g
             transform="translate(254.5864,218.3459)"
             id="g4777">
            <path
               inkscape:connector-curvature="0"
               id="path4779"
               style="fill:#000000;fill-opacity:1;fill-rule:nonzero;stroke:none"
               d="m 0,0 c -0.522,0.536 -1.132,0.806 -1.829,0.806 -0.731,0 -1.357,-0.27 -1.879,-0.806 -0.524,-0.539 -0.785,-1.153 -0.785,-1.846 0,-0.692 0.261,-1.3 0.785,-1.819 0.522,-0.52 1.148,-0.778 1.879,-0.778 0.697,0 1.307,0.258 1.829,0.778 0.521,0.519 0.783,1.127 0.783,1.819 C 0.783,-1.153 0.521,-0.539 0,0" />
          </g>
          <g
             transform="translate(394.894,218.3459)"
             id="g4781">
            <path
               inkscape:connector-curvature="0"
               id="path4783"
               style="fill:#000000;fill-opacity:1;fill-rule:nonzero;stroke:none"
               d="m 0,0 c -0.522,0.536 -1.132,0.806 -1.829,0.806 -0.731,0 -1.357,-0.27 -1.879,-0.806 -0.524,-0.539 -0.785,-1.153 -0.785,-1.846 0,-0.692 0.261,-1.3 0.785,-1.819 0.522,-0.52 1.148,-0.778 1.879,-0.778 0.697,0 1.307,0.258 1.829,0.778 0.521,0.519 0.783,1.127 0.783,1.819 C 0.783,-1.153 0.521,-0.539 0,0" />
          </g>
          <g
             transform="translate(150.917,219.011)"
             id="g4785">
            <path
               inkscape:connector-curvature="0"
               id="path4787"
               style="fill:#000000;fill-opacity:1;fill-rule:nonzero;stroke:none"
               d="M 0,0 V -14.085 H -16.037 V 0 h -4.176 v -32.432 h 4.176 v 15.49 H 0 v -15.49 H 4.177 V 0 Z" />
          </g>
          <g
             transform="translate(166.6909,197.2864)"
             id="g4789">
            <path
               inkscape:connector-curvature="0"
               id="path4791"
               style="fill:#000000;fill-opacity:1;fill-rule:nonzero;stroke:none"
               d="m 0,0 h 15.512 v 2.286 c 0,1.281 -0.147,2.555 -0.443,3.821 -0.297,1.265 -0.793,2.391 -1.49,3.378 -0.695,0.987 -1.627,1.784 -2.794,2.391 C 9.618,12.48 8.147,12.784 6.373,12.784 4.91,12.784 3.543,12.49 2.272,11.902 1.001,11.312 -0.104,10.488 -1.044,9.433 -1.985,8.375 -2.726,7.11 -3.264,5.638 -3.805,4.165 -4.075,2.528 -4.075,0.728 c 0,-3.985 0.923,-6.999 2.768,-9.044 1.846,-2.045 4.58,-3.067 8.202,-3.067 1.879,0 3.534,0.382 4.962,1.146 1.428,0.76 2.768,1.869 4.021,3.325 L 14.26,-5.249 C 12.728,-6.602 11.414,-7.483 10.315,-7.901 9.22,-8.316 8.147,-8.522 7.104,-8.522 4.806,-8.522 3.081,-7.787 1.933,-6.314 0.783,-4.842 0.138,-2.737 0,0 m 0.104,2.6 c 0.138,1.003 0.382,1.963 0.731,2.883 0.349,0.918 0.792,1.732 1.333,2.444 0.538,0.709 1.184,1.271 1.933,1.688 0.747,0.415 1.591,0.624 2.533,0.624 1.426,0 2.586,-0.624 3.473,-1.871 C 10.994,7.12 11.44,5.458 11.44,3.377 V 2.6 Z" />
          </g>
          <path
             inkscape:connector-curvature="0"
             id="path4793"
             style="fill:#000000;fill-opacity:1;fill-rule:nonzero;stroke:none"
             d="m 194.112,209.397 h -4.18 v -22.816 h 4.18 z" />
          <g
             transform="translate(222.5786,186.5793)"
             id="g4795">
            <path
               inkscape:connector-curvature="0"
               id="path4797"
               style="fill:#000000;fill-opacity:1;fill-rule:nonzero;stroke:none"
               d="m 0,0 v 14.346 c 0,1.212 -0.052,2.372 -0.157,3.482 -0.104,1.108 -0.417,2.077 -0.939,2.91 -0.524,0.83 -1.316,1.496 -2.377,1.999 -1.062,0.503 -2.533,0.755 -4.414,0.755 -1.183,0 -2.22,-0.182 -3.107,-0.546 -0.889,-0.362 -1.639,-0.79 -2.246,-1.273 -0.61,-0.486 -1.098,-0.971 -1.464,-1.454 -0.365,-0.487 -0.619,-0.852 -0.756,-1.094 l -0.522,3.952 -3.919,-0.365 c 0.033,-0.174 0.079,-0.478 0.131,-0.909 0.052,-0.434 0.104,-0.927 0.156,-1.483 0.052,-0.552 0.095,-1.126 0.131,-1.715 0.035,-0.587 0.052,-1.142 0.052,-1.662 V 0 h 4.075 v 12.785 c 0,1.039 0.164,2.028 0.496,2.963 0.329,0.937 0.782,1.75 1.359,2.442 0.574,0.694 1.252,1.239 2.035,1.637 0.785,0.399 1.646,0.598 2.586,0.598 1.046,0 1.89,-0.13 2.533,-0.389 0.645,-0.261 1.131,-0.65 1.463,-1.169 0.33,-0.519 0.548,-1.163 0.653,-1.924 0.104,-0.761 0.156,-1.63 0.156,-2.597 L -4.075,0 Z" />
          </g>
          <g
             transform="translate(230.8096,186.5793)"
             id="g4799">
            <path
               inkscape:connector-curvature="0"
               id="path4801"
               style="fill:#000000;fill-opacity:1;fill-rule:nonzero;stroke:none"
               d="m 0,0 h 3.866 v 10.966 c 0,0.762 0.027,1.525 0.079,2.286 0.052,0.765 0.163,1.49 0.339,2.185 0.382,1.418 0.948,2.607 1.695,3.56 0.75,0.951 1.595,1.428 2.534,1.428 1.568,0 2.403,-0.849 2.507,-2.545 l 3.397,1.193 c -0.036,0.764 -0.192,1.421 -0.47,1.976 -0.28,0.555 -0.629,0.996 -1.046,1.326 -0.418,0.329 -0.88,0.571 -1.383,0.729 -0.505,0.153 -0.984,0.231 -1.437,0.231 -1.357,0 -2.543,-0.382 -3.551,-1.143 C 5.52,21.431 4.666,20.408 3.971,19.125 L 3.447,23.077 -0.47,22.712 c 0.033,-0.174 0.079,-0.478 0.131,-0.909 0.052,-0.434 0.104,-0.927 0.156,-1.483 0.053,-0.552 0.095,-1.126 0.131,-1.715 C -0.019,18.018 0,17.463 0,16.943 Z" />
          </g>
          <path
             inkscape:connector-curvature="0"
             id="path4803"
             style="fill:#000000;fill-opacity:1;fill-rule:nonzero;stroke:none"
             d="m 254.874,209.397 h -4.179 v -22.816 h 4.179 z" />
          <g
             transform="translate(279.3174,191.7249)"
             id="g4805">
            <path
               inkscape:connector-curvature="0"
               id="path4807"
               style="fill:#000000;fill-opacity:1;fill-rule:nonzero;stroke:none"
               d="m 0,0 c -1.288,-1.214 -2.402,-2.019 -3.342,-2.417 -0.942,-0.398 -1.952,-0.598 -3.031,-0.598 -1.252,0 -2.306,0.243 -3.16,0.729 -0.854,0.483 -1.539,1.142 -2.063,1.975 -0.522,0.831 -0.897,1.785 -1.122,2.859 -0.228,1.072 -0.34,2.181 -0.34,3.325 0,1.144 0.131,2.304 0.392,3.482 0.261,1.176 0.669,2.244 1.227,3.198 0.557,0.951 1.271,1.731 2.141,2.339 0.871,0.604 1.898,0.908 3.084,0.908 1.321,0 2.374,-0.209 3.159,-0.624 0.783,-0.415 1.487,-0.935 2.116,-1.559 l 1.983,2.963 c -1.011,0.692 -2.113,1.16 -3.316,1.401 -1.2,0.243 -2.377,0.367 -3.525,0.367 -1.776,0 -3.387,-0.304 -4.831,-0.911 -1.447,-0.606 -2.664,-1.455 -3.658,-2.545 -0.991,-1.094 -1.757,-2.392 -2.298,-3.9 -0.539,-1.507 -0.809,-3.162 -0.809,-4.963 0,-3.88 0.975,-6.826 2.924,-8.835 1.95,-2.011 4.649,-3.014 8.096,-3.014 0.557,0 1.176,0.061 1.854,0.182 0.679,0.121 1.367,0.329 2.064,0.624 0.698,0.291 1.386,0.709 2.064,1.245 0.678,0.539 1.33,1.222 1.959,2.054 z" />
          </g>
          <g
             transform="translate(290.8135,222.2327)"
             id="g4809">
            <path
               inkscape:connector-curvature="0"
               id="path4811"
               style="fill:#000000;fill-opacity:1;fill-rule:nonzero;stroke:none"
               d="M 0,0 H -4.075 V -35.652 H 0 v 12.785 c 0,1.038 0.166,2.027 0.496,2.962 0.332,0.934 0.785,1.748 1.359,2.443 0.574,0.692 1.252,1.238 2.037,1.637 0.783,0.398 1.644,0.597 2.586,0.597 1.043,0 1.888,-0.13 2.533,-0.388 0.643,-0.261 1.129,-0.651 1.461,-1.17 0.332,-0.52 0.548,-1.162 0.653,-1.924 0.104,-0.764 0.158,-1.629 0.158,-2.6 v -14.342 h 4.073 v 14.342 c 0,1.213 -0.052,2.375 -0.157,3.483 -0.104,1.11 -0.417,2.08 -0.939,2.91 -0.522,0.833 -1.316,1.499 -2.377,2.002 -1.062,0.503 -2.533,0.755 -4.414,0.755 -1.183,0 -2.211,-0.176 -3.081,-0.52 -0.87,-0.348 -1.603,-0.755 -2.194,-1.221 -0.593,-0.47 -1.072,-0.945 -1.437,-1.431 C 0.391,-15.818 0.138,-16.181 0,-16.423 Z" />
          </g>
          <g
             transform="translate(336.269,186.5793)"
             id="g4813">
            <path
               inkscape:connector-curvature="0"
               id="path4815"
               style="fill:#000000;fill-opacity:1;fill-rule:nonzero;stroke:none"
               d="M 0,0 V 15.489 H 16.034 V 0 h 4.179 V 32.432 H 16.034 V 18.348 H 0 V 32.432 H -4.18 V 0 Z" />
          </g>
          <g
             transform="translate(368.1299,197.2864)"
             id="g4817">
            <path
               inkscape:connector-curvature="0"
               id="path4819"
               style="fill:#000000;fill-opacity:1;fill-rule:nonzero;stroke:none"
               d="m 0,0 h 15.513 v 2.286 c 0,1.281 -0.147,2.555 -0.444,3.821 -0.297,1.265 -0.792,2.391 -1.489,3.378 -0.696,0.987 -1.628,1.784 -2.795,2.391 C 9.618,12.48 8.148,12.784 6.374,12.784 4.91,12.784 3.544,12.49 2.272,11.902 1.001,11.312 -0.104,10.488 -1.043,9.433 -1.985,8.375 -2.725,7.11 -3.264,5.638 -3.805,4.165 -4.075,2.528 -4.075,0.728 c 0,-3.985 0.923,-6.999 2.768,-9.044 1.846,-2.045 4.58,-3.067 8.203,-3.067 1.878,0 3.534,0.382 4.961,1.146 1.429,0.76 2.768,1.869 4.021,3.325 L 14.26,-5.249 C 12.728,-6.602 11.414,-7.483 10.316,-7.901 9.22,-8.316 8.148,-8.522 7.104,-8.522 4.806,-8.522 3.082,-7.787 1.933,-6.314 0.783,-4.842 0.138,-2.737 0,0 m 0.104,2.6 c 0.141,1.003 0.382,1.963 0.731,2.883 0.349,0.918 0.792,1.732 1.333,2.444 0.539,0.709 1.184,1.271 1.933,1.688 0.748,0.415 1.592,0.624 2.533,0.624 1.426,0 2.586,-0.624 3.473,-1.871 C 10.994,7.12 11.44,5.458 11.44,3.377 V 2.6 Z" />
          </g>
          <path
             inkscape:connector-curvature="0"
             id="path4821"
             style="fill:#000000;fill-opacity:1;fill-rule:nonzero;stroke:none"
             d="m 395.181,209.397 h -4.179 v -22.816 h 4.179 z" />
          <g
             transform="translate(423.542,186.5793)"
             id="g4823">
            <path
               inkscape:connector-curvature="0"
               id="path4825"
               style="fill:#000000;fill-opacity:1;fill-rule:nonzero;stroke:none"
               d="m 0,0 v 14.346 c 0,1.212 -0.052,2.372 -0.156,3.482 -0.105,1.108 -0.417,2.077 -0.94,2.91 -0.524,0.83 -1.316,1.496 -2.376,1.999 -1.063,0.503 -2.534,0.755 -4.415,0.755 -1.183,0 -2.219,-0.182 -3.107,-0.546 -0.889,-0.362 -1.639,-0.79 -2.246,-1.273 -0.61,-0.486 -1.098,-0.971 -1.463,-1.454 -0.365,-0.487 -0.619,-0.852 -0.757,-1.094 l -0.522,3.952 -3.918,-0.365 c 0.033,-0.174 0.078,-0.478 0.13,-0.909 0.052,-0.434 0.104,-0.927 0.157,-1.483 0.052,-0.552 0.095,-1.126 0.13,-1.715 0.036,-0.587 0.052,-1.142 0.052,-1.662 V 0 h 4.076 v 12.785 c 0,1.039 0.163,2.028 0.495,2.963 0.33,0.937 0.783,1.75 1.36,2.442 0.573,0.694 1.251,1.239 2.034,1.637 0.785,0.399 1.647,0.598 2.586,0.598 1.046,0 1.891,-0.13 2.533,-0.389 0.645,-0.261 1.131,-0.65 1.463,-1.169 0.33,-0.519 0.548,-1.163 0.653,-1.924 0.104,-0.761 0.157,-1.63 0.157,-2.597 L -4.074,0 Z" />
          </g>
          <g
             transform="translate(434.3271,197.2864)"
             id="g4827">
            <path
               inkscape:connector-curvature="0"
               id="path4829"
               style="fill:#000000;fill-opacity:1;fill-rule:nonzero;stroke:none"
               d="m 0,0 h 15.513 v 2.286 c 0,1.281 -0.147,2.555 -0.444,3.821 -0.296,1.265 -0.792,2.391 -1.489,3.378 -0.695,0.987 -1.627,1.784 -2.794,2.391 C 9.618,12.48 8.148,12.784 6.374,12.784 4.91,12.784 3.544,12.49 2.272,11.902 1.001,11.312 -0.104,10.488 -1.043,9.433 -1.984,8.375 -2.725,7.11 -3.264,5.638 c -0.54,-1.473 -0.81,-3.11 -0.81,-4.91 0,-3.985 0.923,-6.999 2.77,-9.044 1.843,-2.045 4.577,-3.067 8.2,-3.067 1.88,0 3.534,0.382 4.961,1.146 1.429,0.76 2.769,1.869 4.021,3.325 l -1.617,1.663 C 12.729,-6.602 11.414,-7.483 10.316,-7.901 9.22,-8.316 8.148,-8.522 7.104,-8.522 c -2.298,0 -4.022,0.735 -5.17,2.208 C 0.783,-4.842 0.141,-2.737 0,0 m 0.104,2.6 c 0.141,1.003 0.382,1.963 0.731,2.883 0.349,0.918 0.793,1.732 1.333,2.444 0.539,0.709 1.184,1.271 1.934,1.688 0.747,0.415 1.591,0.624 2.533,0.624 1.426,0 2.585,-0.624 3.472,-1.871 C 10.994,7.12 11.44,5.458 11.44,3.377 V 2.6 Z" />
          </g>
          <g
             transform="translate(155.7886,163.5901)"
             id="g4831">
            <path
               inkscape:connector-curvature="0"
               id="path4833"
               style="fill:#000000;fill-opacity:1;fill-rule:nonzero;stroke:none"
               d="m 0,0 h -4.075 v -19.957 c 0,-2.149 -0.218,-3.906 -0.653,-5.275 -0.436,-1.369 -1.036,-2.453 -1.802,-3.247 -0.766,-0.799 -1.663,-1.345 -2.69,-1.639 -1.027,-0.295 -2.132,-0.442 -3.316,-0.442 -1.219,0 -2.343,0.147 -3.368,0.442 -1.03,0.294 -1.916,0.84 -2.664,1.639 -0.749,0.794 -1.342,1.878 -1.776,3.247 -0.437,1.369 -0.653,3.126 -0.653,5.275 V 0 h -4.231 v -20.32 c 0,-4.782 1.062,-8.178 3.186,-10.188 2.122,-2.009 5.291,-3.014 9.506,-3.014 4.213,0 7.355,1.005 9.429,3.014 2.07,2.01 3.107,5.406 3.107,10.188 z m 28.1,-32.431 v 14.345 c 0,1.212 -0.052,2.372 -0.156,3.482 -0.105,1.108 -0.418,2.079 -0.94,2.911 -0.524,0.833 -1.316,1.499 -2.376,2.002 -1.063,0.501 -2.533,0.752 -4.415,0.752 -1.183,0 -2.219,-0.181 -3.107,-0.546 -0.889,-0.363 -1.639,-0.787 -2.246,-1.274 -0.61,-0.483 -1.098,-0.97 -1.464,-1.454 -0.365,-0.486 -0.619,-0.849 -0.756,-1.091 L 12.118,-9.354 8.2,-9.718 c 0.035,-0.175 0.078,-0.476 0.13,-0.91 0.052,-0.435 0.105,-0.928 0.157,-1.48 0.052,-0.555 0.095,-1.127 0.13,-1.715 0.036,-0.591 0.052,-1.144 0.052,-1.665 v -16.943 h 4.075 v 12.785 c 0,1.041 0.164,2.028 0.496,2.962 0.33,0.937 0.783,1.75 1.359,2.444 0.574,0.692 1.253,1.237 2.035,1.636 0.785,0.398 1.646,0.598 2.586,0.598 1.046,0 1.89,-0.129 2.533,-0.39 0.645,-0.258 1.131,-0.649 1.463,-1.168 0.33,-0.52 0.548,-1.161 0.653,-1.924 0.104,-0.762 0.156,-1.627 0.156,-2.598 V -32.431 Z M 40.344,1.431 c -0.524,0.536 -1.134,0.803 -1.828,0.803 -0.731,0 -1.36,-0.267 -1.881,-0.803 -0.522,-0.538 -0.783,-1.153 -0.783,-1.846 0,-0.694 0.261,-1.3 0.783,-1.819 0.521,-0.519 1.15,-0.781 1.881,-0.781 0.694,0 1.304,0.262 1.828,0.781 0.522,0.519 0.783,1.125 0.783,1.819 0,0.693 -0.261,1.308 -0.783,1.846 M 40.553,-9.615 H 36.374 V -32.43 h 4.179 z m 10.211,0 h -4.492 l 9.348,-23.283 h 3.292 l 9.559,23.283 h -3.762 l -6.058,-16.006 c -0.593,-1.594 -0.923,-2.79 -0.994,-3.587 -0.069,0.38 -0.173,0.883 -0.313,1.507 -0.14,0.623 -0.384,1.385 -0.731,2.286 z m 40.269,-12.11 v 2.288 c 0,1.28 -0.147,2.554 -0.444,3.821 -0.297,1.263 -0.792,2.39 -1.487,3.377 -0.698,0.987 -1.63,1.784 -2.794,2.391 -1.169,0.605 -2.64,0.909 -4.414,0.909 -1.464,0 -2.83,-0.294 -4.102,-0.883 -1.271,-0.59 -2.376,-1.413 -3.315,-2.469 -0.942,-1.058 -1.682,-2.322 -2.221,-3.795 -0.541,-1.474 -0.808,-3.109 -0.808,-4.91 0,-3.984 0.92,-7 2.768,-9.044 1.845,-2.045 4.577,-3.067 8.2,-3.067 1.88,0 3.534,0.381 4.961,1.143 1.429,0.764 2.769,1.871 4.023,3.328 l -1.62,1.662 c -1.532,-1.351 -2.846,-2.234 -3.944,-2.651 -1.096,-0.415 -2.168,-0.622 -3.212,-0.622 -2.298,0 -4.022,0.735 -5.171,2.209 -1.15,1.473 -1.793,3.577 -1.933,6.313 z m -5.406,8.369 c 0.89,-1.248 1.333,-2.911 1.333,-4.991 v -0.777 H 75.625 c 0.14,1.003 0.384,1.964 0.732,2.884 0.347,0.918 0.79,1.731 1.331,2.443 0.539,0.709 1.184,1.272 1.933,1.689 0.748,0.415 1.592,0.624 2.533,0.624 1.429,0 2.586,-0.624 3.473,-1.872 m 12.614,-19.075 h 3.866 v 10.968 c 0,0.761 0.026,1.523 0.079,2.286 0.052,0.762 0.163,1.49 0.339,2.183 0.382,1.421 0.949,2.606 1.696,3.559 0.749,0.955 1.593,1.429 2.533,1.429 1.568,0 2.403,-0.849 2.507,-2.546 l 3.397,1.196 c -0.036,0.761 -0.193,1.42 -0.47,1.973 -0.28,0.556 -0.628,0.996 -1.046,1.326 -0.417,0.33 -0.88,0.572 -1.383,0.729 -0.505,0.156 -0.984,0.232 -1.437,0.232 -1.357,0 -2.543,-0.38 -3.551,-1.143 -1.01,-0.762 -1.864,-1.783 -2.56,-3.065 l -0.523,3.95 -3.917,-0.364 c 0.034,-0.175 0.079,-0.476 0.131,-0.91 0.052,-0.435 0.104,-0.928 0.156,-1.48 0.052,-0.555 0.095,-1.127 0.131,-1.715 0.033,-0.591 0.052,-1.144 0.052,-1.665 z m 33.611,9.433 c -0.435,0.78 -0.992,1.447 -1.67,2.002 -0.679,0.553 -1.421,0.986 -2.221,1.3 -0.801,0.31 -1.584,0.572 -2.35,0.778 -1.428,0.382 -2.586,0.918 -3.473,1.612 -0.889,0.694 -1.333,1.628 -1.333,2.807 0,0.898 0.392,1.653 1.174,2.26 0.786,0.605 1.787,0.909 3.006,0.909 1.287,0 2.288,-0.242 3.002,-0.726 0.715,-0.486 1.331,-0.989 1.855,-1.508 l 1.983,2.546 c -0.557,0.485 -1.366,0.952 -2.429,1.403 -1.062,0.45 -2.48,0.676 -4.255,0.676 -1.079,0 -2.108,-0.131 -3.081,-0.389 -0.977,-0.261 -1.838,-0.651 -2.588,-1.17 -0.747,-0.52 -1.349,-1.179 -1.8,-1.976 -0.453,-0.797 -0.681,-1.714 -0.681,-2.754 0,-1.214 0.211,-2.227 0.629,-3.041 0.417,-0.813 0.956,-1.489 1.617,-2.025 0.662,-0.538 1.376,-0.953 2.142,-1.248 0.767,-0.296 1.497,-0.545 2.194,-0.754 1.464,-0.415 2.638,-0.928 3.528,-1.532 0.886,-0.608 1.33,-1.62 1.33,-3.041 0,-1.214 -0.358,-2.14 -1.07,-2.779 -0.714,-0.644 -1.734,-0.964 -3.057,-0.964 -0.695,0 -1.35,0.112 -1.957,0.34 -0.61,0.222 -1.177,0.509 -1.698,0.856 -0.522,0.346 -0.984,0.702 -1.385,1.064 -0.401,0.366 -0.722,0.703 -0.966,1.016 l -1.985,-3.172 c 2.194,-1.733 4.841,-2.599 7.939,-2.599 1.15,0 2.229,0.157 3.24,0.469 1.008,0.311 1.878,0.772 2.612,1.376 0.73,0.608 1.313,1.36 1.748,2.261 0.436,0.901 0.654,1.939 0.654,3.119 0,1.143 -0.218,2.106 -0.654,2.884 m 12.3,24.429 c -0.522,0.536 -1.131,0.803 -1.828,0.803 -0.731,0 -1.357,-0.267 -1.879,-0.803 -0.524,-0.538 -0.785,-1.153 -0.785,-1.846 0,-0.694 0.261,-1.3 0.785,-1.819 0.522,-0.519 1.148,-0.781 1.879,-0.781 0.697,0 1.306,0.262 1.828,0.781 0.522,0.519 0.783,1.125 0.783,1.819 0,0.693 -0.261,1.308 -0.783,1.846 m 0.209,-11.046 h -4.179 V -32.43 h 4.179 z m 20.214,-19.958 c -0.489,-0.241 -0.932,-0.424 -1.331,-0.545 -0.401,-0.121 -0.847,-0.181 -1.333,-0.181 -0.28,0 -0.61,0.052 -0.992,0.154 -0.384,0.105 -0.68,0.243 -0.889,0.417 -0.486,0.38 -0.776,0.848 -0.861,1.403 -0.087,0.554 -0.13,1.421 -0.13,2.599 v 13.513 h 5.431 v 2.598 h -5.431 v 6.705 l -3.971,-0.935 v -5.77 h -3.864 v -2.598 h 3.864 v -13.878 c 0,-1.177 0.045,-2.191 0.13,-3.039 0.088,-0.849 0.359,-1.567 0.812,-2.158 0.486,-0.657 1.122,-1.126 1.905,-1.401 0.784,-0.278 1.61,-0.418 2.481,-0.418 0.905,0 1.802,0.14 2.691,0.418 0.888,0.275 1.644,0.657 2.27,1.142 z m 26.326,-0.415 c -0.629,-0.173 -1.238,-0.259 -1.829,-0.259 -0.489,0 -0.88,0.164 -1.176,0.494 -0.297,0.327 -0.444,1.013 -0.444,2.052 v 12.058 c 0,0.415 -0.009,0.847 -0.026,1.298 -0.016,0.45 -0.078,0.902 -0.182,1.352 -0.105,0.451 -0.281,0.885 -0.522,1.3 -0.245,0.415 -0.575,0.78 -0.992,1.09 -0.906,0.694 -1.907,1.144 -3.005,1.353 -1.096,0.206 -2.149,0.311 -3.16,0.311 -0.939,0 -1.871,-0.085 -2.794,-0.259 -0.922,-0.175 -1.767,-0.47 -2.533,-0.885 -0.766,-0.415 -1.418,-0.96 -1.959,-1.637 -0.541,-0.676 -0.897,-1.532 -1.07,-2.573 l 3.186,-1.039 c 0.104,0.519 0.244,1.006 0.417,1.457 0.173,0.448 0.444,0.855 0.809,1.221 0.368,0.363 0.844,0.648 1.437,0.856 0.591,0.209 1.34,0.314 2.247,0.314 0.486,0 0.958,-0.045 1.411,-0.131 0.451,-0.088 0.868,-0.235 1.252,-0.441 0.591,-0.313 1.011,-0.712 1.255,-1.196 0.242,-0.486 0.365,-1.179 0.365,-2.08 v -3.949 c -1.186,0 -2.203,-0.019 -3.057,-0.052 -0.852,-0.036 -1.679,-0.104 -2.481,-0.209 -1.115,-0.173 -2.14,-0.451 -3.081,-0.83 -0.94,-0.382 -1.758,-0.875 -2.455,-1.482 -0.698,-0.606 -1.245,-1.324 -1.644,-2.157 -0.401,-0.833 -0.602,-1.766 -0.602,-2.805 0,-1.042 0.191,-1.96 0.576,-2.757 0.382,-0.797 0.877,-1.454 1.487,-1.974 0.609,-0.518 1.297,-0.91 2.064,-1.169 0.766,-0.261 1.548,-0.391 2.35,-0.391 1.881,0 3.404,0.418 4.571,1.248 1.164,0.832 1.976,1.783 2.429,2.858 0.104,-1.039 0.46,-1.94 1.069,-2.702 0.61,-0.761 1.507,-1.144 2.69,-1.144 0.698,0 1.367,0.07 2.012,0.209 0.645,0.138 1.105,0.242 1.385,0.311 z m -7.339,6.419 c -0.019,-0.677 -0.062,-1.343 -0.13,-2 -0.105,-0.868 -0.358,-1.604 -0.759,-2.211 -0.401,-0.605 -0.861,-1.091 -1.383,-1.453 -0.522,-0.366 -1.063,-0.624 -1.62,-0.781 -0.558,-0.157 -1.027,-0.233 -1.409,-0.233 -0.524,0 -1.03,0.069 -1.516,0.207 -0.489,0.138 -0.913,0.365 -1.281,0.676 -0.365,0.313 -0.661,0.718 -0.887,1.221 -0.227,0.503 -0.339,1.134 -0.339,1.898 0,0.762 0.157,1.401 0.47,1.921 0.313,0.522 0.697,0.944 1.15,1.274 0.451,0.329 0.92,0.581 1.409,0.754 0.489,0.173 0.906,0.294 1.254,0.363 0.418,0.105 0.878,0.173 1.384,0.208 0.505,0.034 0.993,0.07 1.463,0.105 0.47,0.033 0.904,0.053 1.305,0.053 h 0.915 c 0,-0.66 -0.009,-1.327 -0.026,-2.002 m 2.507,23.439 c -0.472,0.467 -1.036,0.702 -1.698,0.702 -0.697,0 -1.271,-0.235 -1.725,-0.702 -0.453,-0.468 -0.678,-1.013 -0.678,-1.637 0,-0.624 0.225,-1.169 0.678,-1.636 0.454,-0.468 1.028,-0.702 1.725,-0.702 0.662,0 1.226,0.234 1.698,0.702 0.47,0.467 0.705,1.012 0.705,1.636 0,0.624 -0.235,1.169 -0.705,1.637 m -9.637,0 c -0.453,0.467 -1.027,0.702 -1.724,0.702 -0.662,0 -1.227,-0.235 -1.699,-0.702 -0.469,-0.468 -0.704,-1.013 -0.704,-1.637 0,-0.624 0.235,-1.169 0.704,-1.636 0.472,-0.468 1.037,-0.702 1.699,-0.702 0.697,0 1.271,0.234 1.724,0.702 0.451,0.467 0.678,1.012 0.678,1.636 0,0.624 -0.227,1.169 -0.678,1.637 m 30.973,-29.443 c -0.488,-0.241 -0.932,-0.424 -1.331,-0.545 -0.401,-0.121 -0.846,-0.181 -1.333,-0.181 -0.28,0 -0.609,0.052 -0.991,0.154 -0.384,0.105 -0.681,0.243 -0.89,0.417 -0.488,0.38 -0.776,0.848 -0.861,1.403 -0.087,0.554 -0.13,1.421 -0.13,2.599 v 13.513 h 5.431 v 2.598 h -5.431 v 6.705 l -3.971,-0.935 v -5.77 h -3.864 v -2.598 h 3.864 v -13.878 c 0,-1.177 0.043,-2.191 0.131,-3.039 0.087,-0.849 0.358,-1.567 0.811,-2.158 0.486,-0.657 1.122,-1.126 1.905,-1.401 0.785,-0.278 1.61,-0.418 2.481,-0.418 0.906,0 1.802,0.14 2.69,0.418 0.889,0.275 1.646,0.657 2.271,1.142 z m 46.879,21.276 c -0.785,2.009 -1.907,3.672 -3.37,4.988 -1.462,1.317 -3.238,2.304 -5.328,2.963 -2.089,0.658 -4.421,0.987 -7,0.987 -1.079,0 -1.93,-0.007 -2.559,-0.026 -0.626,-0.016 -1.2,-0.033 -1.722,-0.053 -0.522,-0.016 -1.098,-0.033 -1.724,-0.049 -0.626,-0.019 -1.48,-0.045 -2.56,-0.078 v -32.866 c 1.011,0 2.254,-0.016 3.736,-0.052 1.478,-0.034 3.072,-0.052 4.777,-0.052 1.741,0 3.606,0.224 5.591,0.676 1.983,0.45 3.812,1.283 5.484,2.495 1.672,1.212 3.064,2.91 4.179,5.093 1.113,2.184 1.67,5.006 1.67,8.472 0,2.701 -0.391,5.491 -1.174,7.502 m -4.466,-14.466 c -0.662,-1.802 -1.568,-3.223 -2.716,-4.262 -1.15,-1.039 -2.474,-1.758 -3.971,-2.157 -1.497,-0.398 -3.081,-0.597 -4.753,-0.597 -0.662,0 -1.324,0.016 -1.983,0.051 -0.662,0.034 -1.395,0.103 -2.194,0.207 v 27.46 c 0.591,0.034 1.191,0.052 1.8,0.052 h 1.75 c 4.562,0 7.88,-1.136 9.951,-3.403 2.07,-2.271 3.107,-6.056 3.107,-10.491 0,-2.773 -0.33,-5.06 -0.991,-6.86 m 12.797,13.148 v -14.344 c 0,-1.214 0.052,-2.374 0.156,-3.481 0.104,-1.111 0.417,-2.081 0.939,-2.911 0.524,-0.833 1.314,-1.499 2.376,-2.002 1.064,-0.501 2.534,-0.754 4.415,-0.754 1.184,0 2.22,0.182 3.107,0.547 0.89,0.364 1.637,0.789 2.246,1.272 0.61,0.486 1.089,0.971 1.438,1.457 0.346,0.483 0.607,0.849 0.783,1.091 l 0.521,-3.949 3.919,0.362 c -0.036,0.174 -0.078,0.477 -0.131,0.911 -0.051,0.432 -0.104,0.916 -0.156,1.454 -0.053,0.536 -0.098,1.108 -0.131,1.715 -0.035,0.607 -0.052,1.169 -0.052,1.688 V -9.615 H 277.97 V -22.4 c 0,-1.039 -0.166,-2.026 -0.496,-2.963 -0.332,-0.934 -0.782,-1.75 -1.358,-2.443 -0.574,-0.692 -1.253,-1.238 -2.035,-1.636 -0.786,-0.399 -1.647,-0.598 -2.588,-0.598 -1.044,0 -1.889,0.13 -2.534,0.392 -0.642,0.257 -1.131,0.647 -1.46,1.169 -0.332,0.519 -0.548,1.16 -0.653,1.92 -0.104,0.762 -0.157,1.63 -0.157,2.6 v 14.344 z m 16.217,9.485 c -0.47,0.467 -1.038,0.702 -1.697,0.702 -0.697,0 -1.271,-0.235 -1.724,-0.702 -0.453,-0.468 -0.678,-1.013 -0.678,-1.637 0,-0.624 0.225,-1.169 0.678,-1.636 0.453,-0.468 1.027,-0.702 1.724,-0.702 0.659,0 1.227,0.234 1.697,0.702 0.471,0.467 0.706,1.012 0.706,1.636 0,0.624 -0.235,1.169 -0.706,1.637 m -9.635,0 c -0.453,0.467 -1.03,0.702 -1.725,0.702 -0.662,0 -1.228,-0.235 -1.698,-0.702 -0.47,-0.468 -0.705,-1.013 -0.705,-1.637 0,-0.624 0.235,-1.169 0.705,-1.636 0.47,-0.468 1.036,-0.702 1.698,-0.702 0.695,0 1.272,0.234 1.725,0.702 0.45,0.467 0.678,1.012 0.678,1.636 0,0.624 -0.228,1.169 -0.678,1.637 m 35.282,-22.868 c -0.437,0.78 -0.994,1.447 -1.672,2.002 -0.679,0.553 -1.419,0.986 -2.221,1.3 -0.801,0.31 -1.584,0.572 -2.35,0.778 -1.428,0.382 -2.585,0.918 -3.473,1.612 -0.888,0.694 -1.333,1.628 -1.333,2.807 0,0.898 0.392,1.653 1.177,2.26 0.783,0.605 1.784,0.909 3.003,0.909 1.288,0 2.289,-0.242 3.003,-0.726 0.714,-0.486 1.333,-0.989 1.854,-1.508 l 1.986,2.546 c -0.557,0.485 -1.369,0.952 -2.429,1.403 -1.063,0.45 -2.481,0.676 -4.258,0.676 -1.079,0 -2.108,-0.131 -3.081,-0.389 -0.977,-0.261 -1.838,-0.651 -2.585,-1.17 -0.75,-0.52 -1.352,-1.179 -1.803,-1.976 -0.453,-0.797 -0.678,-1.714 -0.678,-2.754 0,-1.214 0.209,-2.227 0.626,-3.041 0.418,-0.813 0.956,-1.489 1.618,-2.025 0.662,-0.538 1.376,-0.953 2.141,-1.248 0.767,-0.296 1.497,-0.545 2.195,-0.754 1.464,-0.415 2.637,-0.928 3.527,-1.532 0.887,-0.608 1.33,-1.62 1.33,-3.041 0,-1.214 -0.358,-2.14 -1.069,-2.779 -0.714,-0.644 -1.735,-0.964 -3.058,-0.964 -0.695,0 -1.349,0.112 -1.957,0.34 -0.609,0.222 -1.177,0.509 -1.698,0.856 -0.522,0.346 -0.984,0.702 -1.385,1.064 -0.398,0.366 -0.722,0.703 -0.966,1.016 l -1.985,-3.172 c 2.194,-1.733 4.841,-2.599 7.939,-2.599 1.151,0 2.23,0.157 3.24,0.469 1.008,0.311 1.881,0.772 2.612,1.376 0.73,0.608 1.313,1.36 1.75,2.261 0.435,0.901 0.652,1.939 0.652,3.119 0,1.143 -0.217,2.106 -0.652,2.884 m 21.362,0 c -0.436,0.78 -0.994,1.447 -1.673,2.002 -0.678,0.553 -1.418,0.986 -2.219,1.3 -0.802,0.31 -1.585,0.572 -2.351,0.778 -1.428,0.382 -2.586,0.918 -3.473,1.612 -0.887,0.694 -1.333,1.628 -1.333,2.807 0,0.898 0.394,1.653 1.176,2.26 0.783,0.605 1.784,0.909 3.003,0.909 1.288,0 2.289,-0.242 3.003,-0.726 0.715,-0.486 1.333,-0.989 1.856,-1.508 l 1.985,2.546 c -0.558,0.485 -1.366,0.952 -2.429,1.403 -1.063,0.45 -2.481,0.676 -4.258,0.676 -1.079,0 -2.106,-0.131 -3.081,-0.389 -0.975,-0.261 -1.839,-0.651 -2.586,-1.17 -0.749,-0.52 -1.349,-1.179 -1.802,-1.976 -0.453,-0.797 -0.678,-1.714 -0.678,-2.754 0,-1.214 0.208,-2.227 0.626,-3.041 0.417,-0.813 0.958,-1.489 1.62,-2.025 0.659,-0.538 1.375,-0.953 2.142,-1.248 0.763,-0.296 1.497,-0.545 2.194,-0.754 1.461,-0.415 2.638,-0.928 3.524,-1.532 0.887,-0.608 1.331,-1.62 1.331,-3.041 0,-1.214 -0.356,-2.14 -1.07,-2.779 -0.714,-0.644 -1.731,-0.964 -3.055,-0.964 -0.697,0 -1.349,0.112 -1.959,0.34 -0.61,0.222 -1.174,0.509 -1.699,0.856 -0.521,0.346 -0.984,0.702 -1.383,1.064 -0.4,0.366 -0.722,0.703 -0.967,1.016 l -1.983,-3.172 c 2.192,-1.733 4.839,-2.599 7.939,-2.599 1.148,0 2.227,0.157 3.238,0.469 1.01,0.311 1.881,0.772 2.611,1.376 0.731,0.608 1.315,1.36 1.751,2.261 0.434,0.901 0.652,1.939 0.652,3.119 0,1.143 -0.218,2.106 -0.652,2.884 m 25.88,1.273 v 2.288 c 0,1.28 -0.149,2.554 -0.443,3.821 -0.297,1.263 -0.793,2.39 -1.49,3.377 -0.698,0.987 -1.627,1.784 -2.794,2.391 -1.167,0.605 -2.638,0.909 -4.414,0.909 -1.461,0 -2.83,-0.294 -4.099,-0.883 -1.272,-0.59 -2.377,-1.413 -3.318,-2.469 -0.94,-1.058 -1.68,-2.322 -2.22,-3.795 -0.539,-1.474 -0.81,-3.109 -0.81,-4.91 0,-3.984 0.923,-7 2.769,-9.044 1.845,-2.045 4.58,-3.067 8.202,-3.067 1.878,0 3.531,0.381 4.962,1.143 1.426,0.764 2.767,1.871 4.02,3.328 l -1.62,1.662 c -1.532,-1.351 -2.846,-2.234 -3.942,-2.651 -1.098,-0.415 -2.168,-0.622 -3.211,-0.622 -2.299,0 -4.023,0.735 -5.171,2.209 -1.15,1.473 -1.796,3.577 -1.934,6.313 z m -5.406,8.369 c 0.888,-1.248 1.331,-2.911 1.331,-4.991 v -0.777 h -11.333 c 0.138,1.003 0.382,1.964 0.73,2.884 0.349,0.918 0.792,1.731 1.333,2.443 0.539,0.709 1.184,1.272 1.931,1.689 0.75,0.415 1.594,0.624 2.533,0.624 1.428,0 2.586,-0.624 3.475,-1.872 M 363.21,2.131 h -4.127 v -34.562 h 4.127 z m 23.763,-27.752 c -0.524,-1.248 -1.16,-2.211 -1.907,-2.885 -0.75,-0.676 -1.532,-1.126 -2.351,-1.351 -0.818,-0.226 -1.506,-0.34 -2.063,-0.34 -1.044,0 -1.95,0.235 -2.716,0.702 -0.767,0.468 -1.402,1.117 -1.907,1.95 -0.505,0.832 -0.88,1.819 -1.122,2.963 -0.244,1.143 -0.365,2.372 -0.365,3.69 0,1.35 0.156,2.588 0.469,3.715 0.314,1.126 0.757,2.087 1.331,2.884 0.576,0.797 1.262,1.411 2.064,1.846 0.802,0.433 1.672,0.649 2.611,0.649 0.906,0 1.767,-0.163 2.585,-0.493 0.818,-0.33 1.532,-0.858 2.143,-1.584 0.609,-0.729 1.097,-1.646 1.463,-2.757 0.365,-1.107 0.547,-2.44 0.547,-4.001 0,-2.078 -0.26,-3.741 -0.782,-4.988 m 1.043,-7.068 3.919,0.362 c -0.035,0.174 -0.078,0.477 -0.131,0.911 -0.052,0.432 -0.103,0.916 -0.156,1.454 -0.055,0.536 -0.098,1.108 -0.133,1.715 -0.033,0.607 -0.052,1.169 -0.052,1.688 v 28.69 h -3.759 v -15.02 c -0.558,1.075 -1.454,2.002 -2.69,2.781 -1.236,0.78 -2.69,1.169 -4.362,1.169 -1.428,0 -2.769,-0.259 -4.024,-0.779 -1.252,-0.521 -2.347,-1.292 -3.289,-2.312 -0.939,-1.025 -1.689,-2.306 -2.247,-3.847 -0.556,-1.542 -0.834,-3.318 -0.834,-5.328 0,-1.629 0.199,-3.161 0.6,-4.599 0.4,-1.437 1.011,-2.702 1.829,-3.795 0.818,-1.091 1.861,-1.948 3.133,-2.571 1.271,-0.624 2.777,-0.937 4.518,-0.937 1.116,0 2.08,0.157 2.899,0.469 0.818,0.311 1.515,0.693 2.09,1.144 0.574,0.448 1.037,0.925 1.385,1.428 0.346,0.503 0.607,0.944 0.783,1.326 z m 31.756,16.708 c -0.486,1.472 -1.2,2.729 -2.14,3.768 -0.941,1.039 -2.115,1.846 -3.526,2.417 -1.409,0.572 -3.023,0.857 -4.832,0.857 -1.81,0 -3.413,-0.285 -4.806,-0.857 -1.392,-0.571 -2.566,-1.378 -3.524,-2.417 -0.958,-1.039 -1.682,-2.296 -2.168,-3.768 -0.489,-1.474 -0.731,-3.11 -0.731,-4.911 0,-1.871 0.288,-3.56 0.861,-5.069 0.574,-1.506 1.366,-2.789 2.377,-3.845 1.01,-1.057 2.201,-1.871 3.577,-2.442 1.376,-0.572 2.848,-0.859 4.414,-0.859 1.567,0 3.038,0.287 4.414,0.859 1.376,0.571 2.569,1.385 3.577,2.442 1.011,1.056 1.803,2.339 2.377,3.845 0.576,1.509 0.863,3.198 0.863,5.069 0,1.801 -0.245,3.437 -0.733,4.911 m -5.458,-11.564 c -1.2,-1.698 -2.882,-2.548 -5.04,-2.548 -2.158,0 -3.838,0.85 -5.04,2.548 -1.2,1.698 -1.801,3.949 -1.801,6.755 0,2.773 0.591,4.991 1.775,6.653 1.183,1.663 2.872,2.496 5.066,2.496 2.194,0 3.883,-0.833 5.066,-2.496 1.184,-1.662 1.777,-3.88 1.777,-6.653 0,-2.806 -0.6,-5.057 -1.803,-6.755 m 12.77,-4.886 h 3.867 v 10.968 c 0,0.761 0.026,1.523 0.079,2.286 0.052,0.762 0.163,1.49 0.339,2.183 0.381,1.421 0.948,2.606 1.696,3.559 0.749,0.955 1.594,1.429 2.533,1.429 1.568,0 2.402,-0.849 2.509,-2.546 l 3.394,1.196 c -0.035,0.761 -0.192,1.42 -0.469,1.973 -0.281,0.556 -0.629,0.996 -1.046,1.326 -0.418,0.33 -0.88,0.572 -1.383,0.729 -0.505,0.156 -0.984,0.232 -1.437,0.232 -1.357,0 -2.543,-0.38 -3.551,-1.143 -1.011,-0.762 -1.865,-1.783 -2.56,-3.065 l -0.524,3.95 -3.916,-0.364 c 0.033,-0.175 0.079,-0.476 0.131,-0.91 0.051,-0.435 0.104,-0.928 0.156,-1.48 0.053,-0.555 0.095,-1.127 0.131,-1.715 0.035,-0.591 0.051,-1.144 0.051,-1.665 z M 463.527,1.3 c -0.452,0.275 -1.157,0.527 -2.115,0.752 -0.958,0.225 -1.993,0.34 -3.108,0.34 -1.532,0 -2.908,-0.278 -4.127,-0.833 -1.219,-0.555 -2.262,-1.506 -3.134,-2.859 -0.661,-1.005 -1.062,-2.103 -1.2,-3.299 -0.139,-1.195 -0.208,-2.312 -0.208,-3.354 v -1.662 h -4.128 v -2.598 h 4.128 v -20.218 h 3.916 v 20.218 h 6.322 v 2.598 h -6.322 v 1.509 c 0,0.865 0.035,1.783 0.105,2.753 0.068,0.97 0.244,1.845 0.521,2.624 0.28,0.78 0.688,1.429 1.229,1.949 0.538,0.519 1.298,0.78 2.272,0.78 1.008,0 1.879,-0.175 2.612,-0.519 0.73,-0.349 1.339,-0.711 1.829,-1.093 z" />
          </g>
          <g
             transform="translate(647.0107,109.4426)"
             id="g4835">
            <path
               inkscape:connector-curvature="0"
               id="path4837"
               style="fill:#006ab3;fill-opacity:1;fill-rule:nonzero;stroke:none"
               d="m 0,0 h 35.05 c 15.382,0 27.851,12.438 27.851,27.78 0,15.342 -12.469,27.781 -27.851,27.781 L 0,55.562 Z" />
          </g>
        </g>
      </g>
    </g>
  </g>
</svg>
